<?xml version="1.0" encoding="utf-8"?>
<!DOCTYPE svg PUBLIC "-//W3C//DTD SVG 1.1//EN" "http://www.w3.org/Graphics/SVG/1.1/DTD/svg11.dtd">
<svg version="1.1" xmlns="http://www.w3.org/2000/svg" xmlns:xlink="http://www.w3.org/1999/xlink" x="0px" y="0px" viewBox="0 123.305 595.279 595.282" xml:space="preserve">
<path fill="#999999" d="M562.531,156.05c-21.823-21.829-48.116-32.746-78.859-32.746H111.618c-30.743,0-57.036,10.917-78.869,32.746
  C10.92,177.883,0.004,204.175,0.004,234.919v372.048c0,30.742,10.916,57.037,32.745,78.869c21.833,21.833,48.126,32.75,78.869,32.75
  h372.049c30.743,0,57.036-10.917,78.859-32.75c21.833-21.832,32.749-48.126,32.749-78.869V234.919
  C595.275,204.175,584.358,177.879,562.531,156.05z M297.639,609.738c-24.396,0-44.198-19.801-44.198-44.198
  s19.801-44.197,44.198-44.197s44.198,19.8,44.198,44.197S322.036,609.738,297.639,609.738z M396.421,511.484
  c-4.14,3.493-9.177,5.186-14.202,5.186c-6.291,0-12.552-2.665-16.928-7.881c-16.897-20.11-41.561-31.646-67.652-31.646
  c-26.091,0-50.753,11.536-67.651,31.646c-4.361,5.201-10.623,7.881-16.928,7.881c-5.024,0-10.063-1.708-14.202-5.186
  c-9.355-7.852-10.564-21.789-2.71-31.13c25.31-30.128,62.304-47.409,101.492-47.409c39.188,0,76.182,17.281,101.493,47.409
  C406.986,489.694,405.778,503.632,396.421,511.484z M464.09,454.705c-4.141,3.492-9.18,5.187-14.203,5.187
  c-6.29,0-12.552-2.666-16.928-7.883c-33.797-40.204-83.121-63.262-135.319-63.262c-52.197,0-101.522,23.057-135.305,63.262
  c-4.36,5.201-10.622,7.883-16.927,7.883c-5.025,0-10.063-1.71-14.202-5.187c-9.356-7.852-10.563-21.789-2.711-31.13
  c42.224-50.224,103.866-79.026,169.145-79.026c65.28,0,126.922,28.803,169.161,79.026
  C474.652,432.902,473.444,446.854,464.09,454.705z M531.755,397.927c-4.139,3.491-9.178,5.186-14.202,5.186
  c-6.306,0-12.567-2.682-16.943-7.882c-50.68-60.286-124.667-94.879-202.971-94.879c-78.304,0-152.292,34.593-202.972,94.893
  c-4.375,5.2-10.637,7.882-16.942,7.882c-5.024,0-10.048-1.71-14.188-5.187c-9.355-7.853-10.563-21.79-2.71-31.13
  c59.122-70.334,145.427-110.658,236.812-110.658c91.386,0,177.706,40.324,236.812,110.658
  C542.305,376.137,541.096,390.087,531.755,397.927z"/>
</svg>

